<svg id="Layer_1" data-name="Layer 1" xmlns="http://www.w3.org/2000/svg" width="612" height="357.5081" viewBox="0 0 612 357.5081">
  <style type="text/css" media="screen">
    <![CDATA[
    g {
        fill: gray;
    }
    g:hover {
        fill:url(#gradient);
    }
    ]]>
  </style>
  <defs>
    <linearGradient id="gradient" gradientTransform="rotate(90)">
      <stop offset="0%"  stop-color="#fd3071" /><stop offset="100%"  stop-color="#3c0b7d" />
    </linearGradient>
  </defs>
  <g>
    <path class="logo" d="M406.7745,154.6914c-4.125,2.75-10.3126,4.812-17.8753,4.812a110.9672,110.9672,0,0,1-33.6889-4.812c-2.75-.6883-4.8121-1.3754-6.1875-1.3754-2.0624,0-2.75,1.3754-2.75,4.125v6.8757a9.939,9.939,0,0,0,1.3745,4.812,10.5942,10.5942,0,0,0,4.125,2.7508c11.0006,4.8121,23.3754,6.8746,37.1266,6.8746,14.4375,0,25.4381-3.4369,34.3751-10.3126s13.0631-15.8127,13.0631-27.5c0-8.2507-2.0624-14.4383-6.1875-19.9385-4.1249-4.8121-11-9.6253-20.6257-13.0622l-19.2506-7.5628c-7.5629-2.7506-13.0631-5.5-15.1256-8.2508-2.75-2.75-4.1249-5.5-4.1249-10.3124,0-10.3126,7.5627-15.8127,23.3755-15.8127a83.1232,83.1232,0,0,1,26.126,4.1248c2.75.6871,4.8123,1.3753,5.4995,1.3753,2.0634,0,3.4378-1.3753,3.4378-4.125V60.5012a9.9269,9.9269,0,0,0-1.3754-4.8121c-.6872-1.3754-2.0624-2.0625-4.1251-2.7508a97.8831,97.8831,0,0,0-30.9382-5.5c-13.0621,0-24.0626,3.438-32.3126,9.6253s-12.3759,15.1256-12.3759,25.4382c0,15.8125,8.9381,27.5013,26.8133,34.376l20.626,7.5628c6.8746,2.75,11,4.8121,13.75,7.5628s3.4377,5.5,3.4377,9.6251c0,5.5-2.0625,10.3125-6.1874,13.0632ZM480.3388,4.125C477.5881,1.3753,473.4632,0,468.651,0s-8.25,1.3753-11,4.125a13.9937,13.9937,0,0,0-4.1251,10.3123c0,4.1251,1.3754,8.2509,4.1251,10.3124,2.75,2.7508,6.1884,4.1251,11,4.1251s8.25-1.3743,11.0006-4.1251a13.9918,13.9918,0,0,0,4.125-10.3124c0-4.1248-.6882-8.25-3.4378-10.3123Zm-4.1251,46.751H461.7753c-3.4367,0-4.812,1.3752-4.812,4.8131V169.817c0,3.4368,1.3753,4.812,4.812,4.812h14.4384c3.4369,0,4.8123-1.3752,4.8123-4.812V55.6891c0-2.7508-1.3744-4.8131-4.8123-4.8131Zm64.6264,27.5c6.1875-6.8747,15.8126-10.3124,29.5629-10.3124a63.55,63.55,0,0,1,19.9386,2.7506,10.2229,10.2229,0,0,0,4.125.6871c2.0626,0,3.437-1.3753,3.437-4.8121V59.8141a8.0132,8.0132,0,0,0-1.3744-4.8122,15.002,15.002,0,0,0-3.4379-2.7507c-8.9382-2.0624-17.8752-4.1249-26.1252-4.1249-19.25,0-33.6889,5.5-44.6884,17.1881-10.3136,11-15.8128,27.5-15.8128,48.1252s4.8121,36.4387,15.1246,47.4392,24.7509,16.5,44.0014,16.5c10.3123,0,19.9387-1.3753,27.5-4.8121,2.0635-.6882,3.4379-1.3753,4.1259-2.7507.6872-.6872.6872-2.75.6872-4.812v-6.8757c0-3.4379-1.3752-4.8122-3.4378-4.8122a7.476,7.476,0,0,0-3.4368.6871,85.8248,85.8248,0,0,1-22.0011,3.4379q-19.5933,0-28.875-10.3124c-6.1884-6.8756-8.938-17.8762-8.938-32.3135v-3.4379c.6863-15.1246,3.4368-26.1253,9.6244-33.0008ZM168.2062,174.629h14.4375c3.4377,0,4.8131-1.3752,4.8131-4.812v-85.94c0-11.6879-2.7506-20.626-8.9381-26.8135S164.08,47.438,152.3926,47.438c-15.8127,0-32.3126,5.5-48.1254,17.1881-5.5-11.6878-15.8127-17.1881-30.9383-17.1881s-30.2511,5.5-45.3767,15.8128l-1.3743-7.5627c0-2.0625-.6881-2.75-2.0635-3.4369-.6872-.688-2.0625-.688-3.4367-.688L10.077,51.564c-3.4368,0-4.8121,1.3743-4.8121,4.8122v114.128c0,3.4376,1.3753,4.813,4.8121,4.813H24.5154c3.4368,0,4.8122-1.3754,4.8122-4.813V77.6892c11.6877-6.8757,23.3755-11.0005,35.7513-11.0005q10.312,0,14.4374,6.1884C82.267,77.002,84.33,82.5015,84.33,90.7523v79.0636c0,3.4379,1.3744,4.8131,4.8122,4.8131H103.58c3.4368,0,4.8122-1.3752,4.8122-4.812V77.6892c12.3749-7.5628,24.0627-11,35.75-11q10.3136,0,14.4384,6.1875c2.7506,4.1249,4.8121,9.6253,4.8121,17.8752V169.817c0,3.4368,1.3754,4.812,4.8131,4.812ZM298.834,55.6891v91.44c-11.6877,7.5628-23.3755,11.6876-35.0632,11.6876q-11.3441,0-16.5-6.1874c-3.4379-4.1249-4.8132-10.3133-4.8132-19.2505V55.6891c0-3.4379-1.3752-4.8131-4.8121-4.8131H223.2073c-3.4369,0-4.8123,1.3752-4.8123,4.8131V140.941c0,11.6878,2.75,21.3132,8.9371,27.5s15.1256,9.6254,26.8134,9.6254c15.8127,0,31.6265-5.5,46.751-16.5009l1.3754,8.251c0,2.0625.6881,2.75,2.0624,3.4368.6881.688,2.0634.688,4.1249.688h10.3136c3.4367,0,4.812-1.3752,4.812-4.8131V55.6891c0-3.4379-1.3753-4.8131-4.812-4.8131H304.3343c-4.125,0-5.5,2.0623-5.5,4.8131Z" transform="translate(0)"/>
    <path class="logo" d="M571.7783,330.6957c35.7505-30.2509,45.3767-92.8147,37.8139-102.44-3.4379-4.1251-19.9387-8.25-40.5635-8.25-22,0-48.1263,4.812-68.0641,18.5624-6.1874,4.1248-4.813,9.6251,1.3743,8.9379,21.314-2.75,69.4394-8.25,78.3775,2.75,8.25,11.0007-9.6253,56.3774-17.8752,76.3151-2.0635,6.1875,2.75,8.25,8.9371,4.1248Zm-28.8759-64.6271c-74.9386,31.6264-156.7537,47.4391-231.0052,47.4391-110.0031,0-216.5681-30.2511-302.5074-80.44a9.7814,9.7814,0,0,0-4.1249-1.3753c-4.8122,0-7.5628,5.5-2.7506,10.3133,79.7527,72.1891,185.63,115.5023,302.5072,115.5023,83.8777,0,180.8175-26.1261,247.5062-75.6268,11.6879-8.25,2.0626-20.6248-9.6253-15.8127Z" transform="translate(0)"/>
  </g>
</svg>
